<svg version="1.1" id="Layer_1" xmlns="http://www.w3.org/2000/svg" x="0px" y="0px"
     width="100%" viewBox="0 0 310 310" enable-background="new 0 0 310 310" xml:space="preserve">
<path fill="#FDFEFE" opacity="1.000000" stroke="none" 
	d="
M311.000000,108.000000 
	C311.000000,176.000000 311.000000,243.500000 311.000000,311.000000 
	C207.666672,311.000000 104.333336,311.000000 1.000000,311.000000 
	C1.000000,207.666672 1.000000,104.333336 1.000000,1.000000 
	C104.333336,1.000000 207.666672,1.000000 311.000000,1.000000 
	C311.000000,36.500000 311.000000,72.000000 311.000000,108.000000 
M111.214447,206.530411 
	C111.214447,240.598801 111.214447,274.667175 111.214447,308.993958 
	C113.712502,308.993958 115.369057,308.993988 117.025604,308.993988 
	C159.016296,308.993896 201.006973,309.008728 242.997665,308.989014 
	C277.461273,308.972809 308.983398,277.375183 308.990631,242.847977 
	C309.002502,186.193878 308.888489,129.539474 309.045227,72.885803 
	C309.108948,49.855995 299.671570,31.643831 281.919769,17.607224 
	C265.582520,4.689089 246.610962,1.632488 226.413513,3.654266 
	C226.413513,12.617338 226.413513,21.213352 226.413513,30.311258 
	C230.511978,30.311258 234.307831,30.286219 238.103256,30.315296 
	C263.904633,30.512962 282.126038,48.759670 282.143677,74.548515 
	C282.180939,129.036407 282.180267,183.524368 282.143768,238.012268 
	C282.126465,263.860046 263.918488,282.086090 238.115616,282.121063 
	C206.789291,282.163544 175.462860,282.132202 144.136475,282.132812 
	C142.378082,282.132843 140.619705,282.132812 138.309586,282.132812 
	C138.309586,252.432602 138.309586,223.516663 138.309586,194.680023 
	C129.017807,194.680023 120.290550,194.680023 111.214607,194.680023 
	C111.214607,198.579208 111.214607,202.061096 111.214447,206.530411 
M7.045599,262.364685 
	C19.086592,296.177643 52.468483,313.804932 83.687141,308.213287 
	C83.687141,299.617798 83.687141,291.050476 83.687141,282.133240 
	C80.650658,282.133240 78.009636,282.137360 75.368629,282.132599 
	C48.566708,282.084320 30.376740,264.066040 30.354084,237.370773 
	C30.308270,183.391083 30.307037,129.411285 30.354570,75.431587 
	C30.378325,48.455921 48.612926,30.336946 75.640335,30.313856 
	C105.795662,30.288092 135.951019,30.303619 166.106369,30.317301 
	C167.881805,30.318106 169.657181,30.462675 171.981918,30.564375 
	C171.981918,60.758476 171.981918,90.473938 171.981918,120.185364 
	C181.272293,120.185364 189.981354,120.185364 198.597900,120.185364 
	C198.597900,81.021553 198.597900,42.303452 198.597900,3.219232 
	C196.400497,3.219232 194.592865,3.219230 192.785233,3.219231 
	C153.300049,3.219259 113.814880,3.215814 74.329704,3.220288 
	C34.391796,3.224813 3.233432,34.261169 3.223011,74.077049 
	C3.208664,128.889801 3.079092,183.703323 3.379721,238.514435 
	C3.421962,246.215790 5.622498,253.905319 7.045599,262.364685 
M207.376144,242.843155 
	C205.975052,242.577545 204.573944,242.311951 203.048035,242.022690 
	C203.048035,213.854065 203.065720,186.043640 203.039215,158.233246 
	C203.028778,147.270889 196.968964,141.144379 186.100372,141.107193 
	C172.441467,141.060440 158.782257,141.103317 145.123215,141.083588 
	C143.535736,141.081299 141.948471,140.926895 140.420761,140.846176 
	C140.420761,117.082977 140.420761,93.837082 140.420761,70.641708 
	C148.231339,69.404106 149.580597,67.592728 149.016357,59.458672 
	C148.663528,54.372227 146.513412,52.887905 139.448929,52.883434 
	C129.787628,52.877323 120.126335,52.877342 110.465034,52.883423 
	C102.011810,52.888748 100.734535,54.437244 100.676643,62.793610 
	C100.634277,68.909241 104.495049,70.200775 109.606964,70.655373 
	C109.606964,72.721741 109.606956,74.535065 109.606964,76.348396 
	C109.607071,102.000809 109.598175,127.653229 109.611076,153.305634 
	C109.617577,166.221664 115.210709,171.740585 128.269333,171.749222 
	C142.850906,171.758850 157.432465,171.751434 172.197464,171.751434 
	C172.197464,195.298721 172.197464,218.699356 172.197464,242.041473 
	C164.229767,243.659195 162.821259,245.675125 163.687546,253.871979 
	C164.196335,258.685974 166.317154,259.982483 173.712997,259.984924 
	C183.374298,259.988098 193.036057,259.930176 202.696655,260.012878 
	C206.536804,260.045746 210.680466,260.008179 211.529114,255.479492 
	C212.348221,251.108490 213.603226,246.008240 207.376144,242.843155 
z"/>
<path fill="#09A6E7" opacity="1.000000" stroke="none" 
	d="
M111.214523,206.036697 
	C111.214607,202.061096 111.214607,198.579208 111.214607,194.680023 
	C120.290550,194.680023 129.017807,194.680023 138.309586,194.680023 
	C138.309586,223.516663 138.309586,252.432602 138.309586,282.132812 
	C140.619705,282.132812 142.378082,282.132843 144.136475,282.132812 
	C175.462860,282.132202 206.789291,282.163544 238.115616,282.121063 
	C263.918488,282.086090 282.126465,263.860046 282.143768,238.012268 
	C282.180267,183.524368 282.180939,129.036407 282.143677,74.548515 
	C282.126038,48.759670 263.904633,30.512962 238.103256,30.315296 
	C234.307831,30.286219 230.511978,30.311258 226.413513,30.311258 
	C226.413513,21.213352 226.413513,12.617338 226.413513,3.654266 
	C246.610962,1.632488 265.582520,4.689089 281.919769,17.607224 
	C299.671570,31.643831 309.108948,49.855995 309.045227,72.885803 
	C308.888489,129.539474 309.002502,186.193878 308.990631,242.847977 
	C308.983398,277.375183 277.461273,308.972809 242.997665,308.989014 
	C201.006973,309.008728 159.016296,308.993896 117.025604,308.993988 
	C115.369057,308.993988 113.712502,308.993958 111.214447,308.993958 
	C111.214447,274.667175 111.214447,240.598801 111.214523,206.036697 
z"/>
<path fill="#08A6E7" opacity="1.000000" stroke="none" 
	d="
M6.934800,261.982483 
	C5.622498,253.905319 3.421962,246.215790 3.379721,238.514435 
	C3.079092,183.703323 3.208664,128.889801 3.223011,74.077049 
	C3.233432,34.261169 34.391796,3.224813 74.329704,3.220288 
	C113.814880,3.215814 153.300049,3.219259 192.785233,3.219231 
	C194.592865,3.219230 196.400497,3.219232 198.597900,3.219232 
	C198.597900,42.303452 198.597900,81.021553 198.597900,120.185364 
	C189.981354,120.185364 181.272293,120.185364 171.981918,120.185364 
	C171.981918,90.473938 171.981918,60.758476 171.981918,30.564375 
	C169.657181,30.462675 167.881805,30.318106 166.106369,30.317301 
	C135.951019,30.303619 105.795662,30.288092 75.640335,30.313856 
	C48.612926,30.336946 30.378325,48.455921 30.354570,75.431587 
	C30.307037,129.411285 30.308270,183.391083 30.354084,237.370773 
	C30.376740,264.066040 48.566708,282.084320 75.368629,282.132599 
	C78.009636,282.137360 80.650658,282.133240 83.687141,282.133240 
	C83.687141,291.050476 83.687141,299.617798 83.687141,308.213287 
	C52.468483,313.804932 19.086592,296.177643 6.934800,261.982483 
z"/>
<path fill="#1D1D1D" opacity="1.000000" stroke="none" 
	d="
M207.765106,242.960754 
	C213.603226,246.008240 212.348221,251.108490 211.529114,255.479492 
	C210.680466,260.008179 206.536804,260.045746 202.696655,260.012878 
	C193.036057,259.930176 183.374298,259.988098 173.712997,259.984924 
	C166.317154,259.982483 164.196335,258.685974 163.687546,253.871979 
	C162.821259,245.675125 164.229767,243.659195 172.197464,242.041473 
	C172.197464,218.699356 172.197464,195.298721 172.197464,171.751434 
	C157.432465,171.751434 142.850906,171.758850 128.269333,171.749222 
	C115.210709,171.740585 109.617577,166.221664 109.611076,153.305634 
	C109.598175,127.653229 109.607071,102.000809 109.606964,76.348396 
	C109.606956,74.535065 109.606964,72.721741 109.606964,70.655373 
	C104.495049,70.200775 100.634277,68.909241 100.676643,62.793610 
	C100.734535,54.437244 102.011810,52.888748 110.465034,52.883423 
	C120.126335,52.877342 129.787628,52.877323 139.448929,52.883434 
	C146.513412,52.887905 148.663528,54.372227 149.016357,59.458672 
	C149.580597,67.592728 148.231339,69.404106 140.420761,70.641708 
	C140.420761,93.837082 140.420761,117.082977 140.420761,140.846176 
	C141.948471,140.926895 143.535736,141.081299 145.123215,141.083588 
	C158.782257,141.103317 172.441467,141.060440 186.100372,141.107193 
	C196.968964,141.144379 203.028778,147.270889 203.039215,158.233246 
	C203.065720,186.043640 203.048035,213.854065 203.048035,242.022690 
	C204.573944,242.311951 205.975052,242.577545 207.765106,242.960754 
z"/>
</svg>
