<?xml version="1.0" encoding="UTF-8"?>
<!DOCTYPE svg PUBLIC "-//W3C//DTD SVG 1.1//EN" "http://www.w3.org/Graphics/SVG/1.1/DTD/svg11.dtd">
<svg xmlns="http://www.w3.org/2000/svg" version="1.1" width="310px" height="310px"
     style="shape-rendering:geometricPrecision; text-rendering:geometricPrecision; image-rendering:optimizeQuality; fill-rule:evenodd; clip-rule:evenodd">
<g><path style="opacity:0.993" fill="#fefefe" d="M 55.5,-0.5 C 121.833,-0.5 188.167,-0.5 254.5,-0.5C 282.324,7.32387 300.657,24.9905 309.5,52.5C 309.5,120.5 309.5,188.5 309.5,256.5C 301.5,283.833 283.833,301.5 256.5,309.5C 188.5,309.5 120.5,309.5 52.5,309.5C 24.5482,300.549 6.88153,281.882 -0.5,253.5C -0.5,187.5 -0.5,121.5 -0.5,55.5C 7.20203,25.798 25.8687,7.13129 55.5,-0.5 Z"/></g>
<g><path style="opacity:1" fill="#12a6e7" d="M 60.5,2.5 C 105.833,2.5 151.167,2.5 196.5,2.5C 196.5,41.1667 196.5,79.8333 196.5,118.5C 187.833,118.5 179.167,118.5 170.5,118.5C 170.5,88.5 170.5,58.5 170.5,28.5C 135.329,28.1683 100.329,28.5016 65.5,29.5C 47.5385,32.7422 35.7052,43.0756 30,60.5C 29.3333,122.5 29.3333,184.5 30,246.5C 37.9997,272.262 55.4997,283.595 82.5,280.5C 82.5,289.5 82.5,298.5 82.5,307.5C 53.0936,310.767 29.927,300.434 13,276.5C 7.139,266.584 3.47233,255.917 2,244.5C 1.33333,183.833 1.33333,123.167 2,62.5C 6.30551,37.8681 19.4722,19.7014 41.5,8C 47.5809,5.25028 53.9143,3.41695 60.5,2.5 Z"/></g>
<g><path style="opacity:1" fill="#60c3ef" d="M 245.5,2.5 C 238.833,2.5 232.167,2.5 225.5,2.5C 225.5,11.1667 225.5,19.8333 225.5,28.5C 231.358,28.1778 237.025,28.5111 242.5,29.5C 236.5,29.5 230.5,29.5 224.5,29.5C 224.5,20.1667 224.5,10.8333 224.5,1.5C 231.687,1.17547 238.687,1.50881 245.5,2.5 Z"/></g>
<g><path style="opacity:1" fill="#0ba5e7" d="M 245.5,2.5 C 278.085,7.24885 298.585,25.5822 307,57.5C 307.667,121.5 307.667,185.5 307,249.5C 300.565,278.602 283.065,297.435 254.5,306C 206.539,307.476 158.539,307.976 110.5,307.5C 110.5,269.5 110.5,231.5 110.5,193.5C 119.167,193.5 127.833,193.5 136.5,193.5C 136.5,222.5 136.5,251.5 136.5,280.5C 172.664,281.664 208.998,281.831 245.5,281C 246.416,280.722 247.082,280.222 247.5,279.5C 265.895,274.407 276.728,262.407 280,243.5C 280.667,182.833 280.667,122.167 280,61.5C 274.089,43.0872 261.589,32.4205 242.5,29.5C 237.025,28.5111 231.358,28.1778 225.5,28.5C 225.5,19.8333 225.5,11.1667 225.5,2.5C 232.167,2.5 238.833,2.5 245.5,2.5 Z"/></g>
<g><path style="opacity:1" fill="#46baec" d="M 60.5,2.5 C 105.997,1.50124 151.664,1.1679 197.5,1.5C 197.5,40.8333 197.5,80.1667 197.5,119.5C 188.5,119.5 179.5,119.5 170.5,119.5C 170.5,119.167 170.5,118.833 170.5,118.5C 179.167,118.5 187.833,118.5 196.5,118.5C 196.5,79.8333 196.5,41.1667 196.5,2.5C 151.167,2.5 105.833,2.5 60.5,2.5 Z"/></g>
<g><path style="opacity:1" fill="#afe2f7" d="M 65.5,29.5 C 100.329,28.5016 135.329,28.1683 170.5,28.5C 170.5,58.5 170.5,88.5 170.5,118.5C 170.5,118.833 170.5,119.167 170.5,119.5C 169.502,89.6713 169.169,59.6713 169.5,29.5C 134.833,29.5 100.167,29.5 65.5,29.5 Z"/></g>
<g><path style="opacity:1" fill="#1b1b1b" d="M 142.5,68.5 C 141.167,68.5 139.833,68.5 138.5,68.5C 138.169,92.3392 138.502,116.006 139.5,139.5C 156.503,139.333 173.503,139.5 190.5,140C 196.154,142.483 199.82,146.65 201.5,152.5C 201.5,182.167 201.5,211.833 201.5,241.5C 202.833,241.5 204.167,241.5 205.5,241.5C 207.371,241.859 208.871,242.859 210,244.5C 210.978,248.9 210.478,253.067 208.5,257C 201.1,258.134 193.6,258.634 186,258.5C 179.167,258.333 172.333,258.167 165.5,258C 163.005,255.781 162.005,252.948 162.5,249.5C 162.667,247.5 162.833,245.5 163,243.5C 163.816,242.177 164.983,241.511 166.5,241.5C 168.167,241.5 169.833,241.5 171.5,241.5C 171.5,217.5 171.5,193.5 171.5,169.5C 154.167,169.5 136.833,169.5 119.5,169.5C 113.844,167.878 110.177,164.211 108.5,158.5C 108.5,128.5 108.5,98.5 108.5,68.5C 106.833,68.5 105.167,68.5 103.5,68.5C 100.088,66.749 98.7546,63.9157 99.5,60C 99.0259,56.7077 100.026,54.0411 102.5,52C 109.333,51.8333 116.167,51.6667 123,51.5C 130.6,51.3659 138.1,51.8659 145.5,53C 146,53.5 146.5,54 147,54.5C 147.667,57.8333 147.667,61.1667 147,64.5C 146.252,66.751 144.752,68.0844 142.5,68.5 Z"/></g>
<g><path style="opacity:1" fill="#c8c8c8" d="M 142.5,68.5 C 141.791,69.404 140.791,69.7373 139.5,69.5C 139.5,92.8333 139.5,116.167 139.5,139.5C 138.502,116.006 138.169,92.3392 138.5,68.5C 139.833,68.5 141.167,68.5 142.5,68.5 Z"/></g>
<g><path style="opacity:1" fill="#9d9d9d" d="M 103.5,68.5 C 105.167,68.5 106.833,68.5 108.5,68.5C 108.5,98.5 108.5,128.5 108.5,158.5C 107.502,129.005 107.169,99.338 107.5,69.5C 105.901,69.7678 104.568,69.4345 103.5,68.5 Z"/></g>
<g><path style="opacity:1" fill="#d1d1d1" d="M 201.5,152.5 C 202.498,181.662 202.831,210.995 202.5,240.5C 203.791,240.263 204.791,240.596 205.5,241.5C 204.167,241.5 202.833,241.5 201.5,241.5C 201.5,211.833 201.5,182.167 201.5,152.5 Z"/></g>
<g><path style="opacity:1" fill="#838383" d="M 119.5,169.5 C 136.833,169.5 154.167,169.5 171.5,169.5C 171.5,193.5 171.5,217.5 171.5,241.5C 169.833,241.5 168.167,241.5 166.5,241.5C 167.568,240.566 168.901,240.232 170.5,240.5C 170.5,217.167 170.5,193.833 170.5,170.5C 153.325,170.83 136.325,170.497 119.5,169.5 Z"/></g>
<g><path style="opacity:1" fill="#69c8f0" d="M 137.5,280.5 C 137.167,280.5 136.833,280.5 136.5,280.5C 136.5,251.5 136.5,222.5 136.5,193.5C 127.833,193.5 119.167,193.5 110.5,193.5C 110.5,231.5 110.5,269.5 110.5,307.5C 109.501,269.337 109.168,231.004 109.5,192.5C 118.833,192.5 128.167,192.5 137.5,192.5C 137.5,221.833 137.5,251.167 137.5,280.5 Z"/></g>
<g><path style="opacity:1" fill="#46bcec" d="M 247.5,279.5 C 247.082,280.222 246.416,280.722 245.5,281C 208.998,281.831 172.664,281.664 136.5,280.5C 136.833,280.5 137.167,280.5 137.5,280.5C 174.191,280.808 210.857,280.475 247.5,279.5 Z"/></g>
</svg>
